# xmcd CD database file
#
# Track frame offsets:
#	150
#	14327
#	73729
#	114483
#	140510
#	180486
#	206637
#	254787
#
# Disc length: 3698 seconds
#
# Revision: 0
# Processed by: cddbd v1.5.2PL0 Copyright (c) Steve Scherf et al.
# Submitted via: CDex 1.70beta2
#
DISCID=770e7008
DTITLE=André Fernandes - Cubo
DYEAR=2007
DGENRE=Jazz
TTITLE0=Belzebu Is In The Building
TTITLE1=Sal
TTITLE2=Not The Vibe
TTITLE3=Perto
TTITLE4=Dog Speak
TTITLE5=Vizz
TTITLE6=Trinta Dias
TTITLE7=Foi-se Embora
EXTD=YEAR: 2007
EXTT0=
EXTT1=
EXTT2=
EXTT3=
EXTT4=
EXTT5=
EXTT6=
EXTT7=
PLAYORDER=
